<?xml version="1.0" encoding="UTF-8" standalone="no"?>
<svg
   width="563.26001"
   height="216.97501"
   viewBox="0 0 563.26001 216.97501"
   fill="none"
   version="1.1"
   id="svg7"
   sodipodi:docname="Group 3.svg"
   inkscape:version="1.4 (86a8ad7, 2024-10-11)"
   xmlns:inkscape="http://www.inkscape.org/namespaces/inkscape"
   xmlns:sodipodi="http://sodipodi.sourceforge.net/DTD/sodipodi-0.dtd"
   xmlns:xlink="http://www.w3.org/1999/xlink"
   xmlns="http://www.w3.org/2000/svg"
   xmlns:svg="http://www.w3.org/2000/svg">
  <defs
     id="defs7">
    <inkscape:path-effect
       effect="fillet_chamfer"
       id="path-effect6"
       is_visible="true"
       lpeversion="1"
       nodesatellites_param="F,0,0,1,0,25,0,1 @ F,0,0,1,0,25,0,1 @ F,0,0,1,0,25,0,1 @ F,0,0,1,0,25,0,1"
       radius="25"
       unit="px"
       method="auto"
       mode="F"
       chamfer_steps="1"
       flexible="false"
       use_knot_distance="true"
       apply_no_radius="true"
       apply_with_radius="true"
       only_selected="false"
       hide_knots="false" />
    <linearGradient
       id="linearGradient40"
       inkscape:collect="always">
      <stop
         style="stop-color:#9dcdfa;stop-opacity:1;"
         offset="0"
         id="stop40" />
      <stop
         style="stop-color:#dbaee3;stop-opacity:1;"
         offset="1"
         id="stop41" />
    </linearGradient>
    <linearGradient
       inkscape:collect="always"
       xlink:href="#linearGradient40"
       id="linearGradient1"
       gradientUnits="userSpaceOnUse"
       x1="139.32057"
       y1="54.059986"
       x2="645.57764"
       y2="159.14075"
       gradientTransform="matrix(0.65363478,0,0,0.65363478,50.000095,49.999961)" />
    <filter
       inkscape:label="Inset"
       inkscape:menu="Shadows and Glows"
       inkscape:menu-tooltip="Shadowy outer bevel"
       style="color-interpolation-filters:sRGB;"
       id="filter293"
       x="-0.028580077"
       y="-0.11318695"
       width="1.0571602"
       height="1.2263739">
      <feMorphology
         result="result1"
         in="SourceAlpha"
         operator="dilate"
         radius="4.5999999999999996"
         id="feMorphology292" />
      <feGaussianBlur
         stdDeviation="3.6"
         in="result1"
         result="result0"
         id="feGaussianBlur292" />
      <feDiffuseLighting
         surfaceScale="-4.9600000000000009"
         id="feDiffuseLighting292"
         diffuseConstant="0.60000000000000009"
         lighting-color="rgb(226,226,226)">
        <feDistantLight
           elevation="45"
           azimuth="225"
           id="feDistantLight292" />
      </feDiffuseLighting>
      <feComposite
         in2="result0"
         operator="in"
         result="result91"
         id="feComposite292" />
      <feComposite
         in="SourceGraphic"
         in2="result91"
         id="feComposite293" />
    </filter>
  </defs>
  <sodipodi:namedview
     id="namedview7"
     pagecolor="#ffffff"
     bordercolor="#000000"
     borderopacity="0.25"
     inkscape:showpageshadow="2"
     inkscape:pageopacity="0.0"
     inkscape:pagecheckerboard="true"
     inkscape:deskcolor="#d1d1d1"
     showborder="true"
     inkscape:zoom="1.6939351"
     inkscape:cx="134.89301"
     inkscape:cy="166.77144"
     inkscape:window-width="2560"
     inkscape:window-height="1494"
     inkscape:window-x="-11"
     inkscape:window-y="-11"
     inkscape:window-maximized="1"
     inkscape:current-layer="svg7"
     showgrid="false" />
  <path
     id="rect6"
     style="fill:#616161;stroke-width:1.09724;fill-opacity:1"
     d="m 25,0 h 513.26001 a 25,25 45 0 1 25,25 v 166.97501 a 25,25 135 0 1 -25,25 H 25 a 25,25 45 0 1 -25,-25 V 25 A 25,25 135 0 1 25,0 Z"
     inkscape:path-effect="#path-effect6"
     inkscape:original-d="M 0,0 H 563.26001 V 216.97501 H 0 Z" />
  <path
     id="path47"
     style="fill:url(#linearGradient1);stroke-width:0.653635;filter:url(#filter293)"
     d="M 80.720703 50 C 63.808253 50 50 63.808245 50 80.720703 L 50 89.544922 L 110.78906 89.544922 L 110.78906 165.36719 L 156.21484 165.36719 L 156.21484 89.544922 L 195.14453 89.544922 C 206.11288 89.544922 216.26612 83.682408 221.75 74.183594 L 235.71484 50 L 80.720703 50 z M 80.720703 59.150391 L 219.86328 59.150391 L 213.82617 69.609375 C 209.96961 76.289459 202.85837 80.394531 195.14453 80.394531 L 147.06445 80.394531 L 147.06445 156.21484 L 119.93945 156.21484 L 119.93945 80.394531 L 59.183594 80.394531 C 59.361164 68.584159 68.865833 59.150391 80.720703 59.150391 z M 195.6543 110.78711 C 191.05467 110.78711 187.04415 111.67493 183.62695 113.44922 C 180.20975 115.22351 177.54792 117.7216 175.64258 120.94141 C 173.80259 124.09585 172.88281 127.80858 172.88281 132.08008 L 172.88281 145.68359 C 172.88281 149.95509 173.80259 153.69947 175.64258 156.91992 C 177.54792 160.07436 180.20975 162.53853 183.62695 164.3125 C 187.04415 166.08712 191.05467 166.97461 195.6543 166.97461 C 201.43766 166.97461 206.33306 165.59428 210.3418 162.83398 C 214.41591 160.00831 216.91171 156.26331 217.83203 151.59766 L 205.70898 151.59766 C 205.24882 153.43764 204.16368 154.85026 202.45508 155.83594 C 200.74648 156.7556 198.51225 157.21484 195.75195 157.21484 C 192.138 157.21484 189.41029 156.26276 187.57031 154.35742 C 185.73033 152.38605 184.81055 149.49493 184.81055 145.68359 L 184.81055 141.83789 L 218.22656 141.83789 L 218.22656 132.08008 C 218.22656 127.80858 217.27449 124.09585 215.36914 120.94141 C 213.52916 117.7216 210.89963 115.22351 207.48242 113.44922 C 204.13124 111.67493 200.18922 110.78711 195.6543 110.78711 z M 372.96875 110.78711 C 368.36912 110.78711 364.36057 111.67493 360.94336 113.44922 C 357.52616 115.22351 354.86498 117.7216 352.95898 120.94141 C 351.119 124.09585 350.19922 127.80858 350.19922 132.08008 L 350.19922 145.68359 C 350.19922 149.95509 351.119 153.69947 352.95898 156.91992 C 354.86498 160.07436 357.52616 162.53853 360.94336 164.3125 C 364.36057 166.08712 368.36912 166.97461 372.96875 166.97461 C 378.75211 166.97461 383.64751 165.59428 387.65625 162.83398 C 391.73036 160.00831 394.22813 156.26331 395.14844 151.59766 L 383.02344 151.59766 C 382.56328 153.43764 381.47813 154.85026 379.76953 155.83594 C 378.06092 156.7556 375.82866 157.21484 373.06836 157.21484 C 369.45442 157.21484 366.7267 156.26276 364.88672 154.35742 C 363.04674 152.38605 362.12695 149.49493 362.12695 145.68359 L 362.12695 141.83789 L 395.54102 141.83789 L 395.54102 132.08008 C 395.54102 127.80858 394.58894 124.09585 392.68359 120.94141 C 390.84361 117.7216 388.21408 115.22351 384.79688 113.44922 C 381.4457 111.67493 377.50301 110.78711 372.96875 110.78711 z M 438.2832 110.78711 C 433.1574 110.78711 429.28125 112.26743 426.65234 115.22461 C 425.07314 117.00162 423.97223 119.3044 423.3418 122.125 L 423.30078 122.125 L 423.30078 111.77344 L 411.66992 111.77344 L 411.66992 165.98828 L 423.99219 165.98828 L 423.99219 132.08008 C 423.99218 128.59752 424.84608 125.90209 426.55469 123.99609 C 428.3293 122.09074 430.82642 121.13867 434.04688 121.13867 C 437.20132 121.13867 439.66353 122.09074 441.4375 123.99609 C 443.27748 125.90209 444.19922 128.59752 444.19922 132.08008 L 444.19922 135.13477 L 457.11328 135.13477 L 457.11328 131.19141 C 457.11328 124.81717 455.43582 119.82359 452.08398 116.20898 C 448.73279 112.59491 444.13193 110.78711 438.2832 110.78711 z M 491.76953 110.78711 C 485.52666 110.78711 480.40132 112.2994 476.39258 115.32227 C 472.38384 118.34526 470.08568 122.41912 469.49414 127.54492 L 481.51953 127.54492 C 481.84831 125.5082 482.89921 123.89726 484.67383 122.71484 C 486.4478 121.53176 488.68268 120.94141 491.37695 120.94141 C 494.334 120.94141 496.6664 121.69713 498.375 123.20898 C 500.0836 124.65482 500.9375 126.6914 500.9375 129.32031 L 500.9375 133.95312 L 487.43359 133.95312 C 480.92797 133.95312 475.90014 135.39738 472.35156 138.28906 C 468.80298 141.18074 467.0293 145.28814 467.0293 150.61133 C 467.0293 155.60576 468.63892 159.58137 471.85938 162.53906 C 475.07918 165.49611 479.4824 166.97461 485.06836 166.97461 C 489.99676 166.97461 493.93943 165.79128 496.89648 163.42578 C 499.166 161.61026 500.56217 159.30874 501.08984 156.52539 L 501.33203 156.52539 L 501.33203 165.98828 L 513.25977 165.98828 L 513.25977 129.2207 C 513.25977 123.56937 511.32072 119.10027 507.44336 115.81445 C 503.63201 112.46306 498.40654 110.78711 491.76953 110.78711 z M 253.28125 110.88672 C 246.64358 110.88672 241.61643 112.29927 238.19922 115.125 C 234.78202 117.88497 233.07227 121.79503 233.07227 126.85547 C 233.07227 131.71786 234.51848 135.36535 237.41016 137.79688 C 240.30119 140.2284 244.83617 141.87031 251.01367 142.72461 L 257.71484 143.71094 C 260.54051 144.03907 262.61132 144.76379 263.92578 145.88086 C 265.3056 146.93255 265.99609 148.41042 265.99609 150.31641 C 265.99609 152.35314 265.23973 153.96341 263.72852 155.14648 C 262.21732 156.32956 259.94884 156.91992 256.92578 156.91992 L 252.58984 156.91992 C 250.0923 156.91992 248.05574 156.39285 246.47852 155.3418 C 244.96732 154.29011 244.14701 152.91173 244.01562 151.20312 L 231.69336 151.20312 C 231.82474 154.35757 232.74452 157.11626 234.45312 159.48242 C 236.22774 161.78191 238.65962 163.58984 241.74805 164.9043 C 244.83647 166.21876 248.44972 166.875 252.58984 166.875 L 256.92578 166.875 C 263.89156 166.875 269.15064 165.43009 272.69922 162.53906 C 276.31316 159.58137 278.12109 155.47398 278.12109 150.2168 C 278.12109 145.28774 276.57475 141.57501 273.48633 139.07812 C 270.46327 136.51522 265.73323 134.77318 259.29297 133.85352 L 252.29492 132.86914 C 249.79738 132.475 247.99011 131.84844 246.87305 130.99414 C 245.75599 130.07448 245.19727 128.69545 245.19727 126.85547 C 245.19727 124.88345 245.82187 123.4056 247.07031 122.41992 C 248.38412 121.36887 250.45493 120.8418 253.28125 120.8418 L 257.02539 120.8418 C 259.32553 120.8418 261.16705 121.30234 262.54688 122.22266 C 263.99271 123.14232 264.81238 124.32564 265.00977 125.77148 L 277.33203 125.77148 C 277.06926 121.23722 275.12957 117.62207 271.51562 114.92773 C 267.90103 112.23338 263.07151 110.88672 257.02539 110.88672 L 253.28125 110.88672 z M 312.38672 110.88672 C 305.74971 110.88672 300.72189 112.29927 297.30469 115.125 C 293.88749 117.88497 292.17773 121.79503 292.17773 126.85547 C 292.17773 131.71786 293.62394 135.36535 296.51562 137.79688 C 299.40731 140.2284 303.94034 141.87031 310.11719 142.72461 L 316.82031 143.71094 C 319.64597 144.03907 321.71679 144.76379 323.03125 145.88086 C 324.41107 146.93255 325.10156 148.41042 325.10156 150.31641 C 325.10156 152.35314 324.34583 153.96341 322.83398 155.14648 C 321.32277 156.32956 319.05627 156.91992 316.0332 156.91992 L 311.69531 156.91992 C 309.19843 156.91992 307.1612 156.39285 305.58398 155.3418 C 304.07278 154.29011 303.25052 152.91173 303.11914 151.20312 L 290.79883 151.20312 C 290.93021 154.35757 291.84999 157.11626 293.55859 159.48242 C 295.33256 161.78191 297.76444 163.58984 300.85352 164.9043 C 303.94195 166.21876 307.55519 166.875 311.69531 166.875 L 316.0332 166.875 C 322.99899 166.875 328.25611 165.43009 331.80469 162.53906 C 335.41929 159.58137 337.22461 155.47398 337.22461 150.2168 C 337.22461 145.28774 335.68088 141.57501 332.5918 139.07812 C 329.5694 136.51522 324.8387 134.77318 318.39844 133.85352 L 311.40039 132.86914 C 308.90285 132.475 307.09428 131.84844 305.97656 130.99414 C 304.8595 130.07448 304.30273 128.69545 304.30273 126.85547 C 304.30273 124.88345 304.92733 123.4056 306.17578 122.41992 C 307.49023 121.36887 309.56106 120.8418 312.38672 120.8418 L 316.13086 120.8418 C 318.43035 120.8418 320.27187 121.30234 321.65234 122.22266 C 323.09818 123.14232 323.91783 124.32564 324.11523 125.77148 L 336.4375 125.77148 C 336.17474 121.23722 334.23569 117.62207 330.62109 114.92773 C 327.00714 112.23338 322.17633 110.88672 316.13086 110.88672 L 312.38672 110.88672 z M 195.6543 120.34961 C 199.20288 120.34961 201.86405 121.36758 203.63867 123.4043 C 205.41263 125.37567 206.29883 128.23449 206.29883 131.98047 L 206.29883 133.96094 L 184.81055 134.14844 L 184.81055 132.08008 C 184.81055 128.33475 185.73033 125.44168 187.57031 123.4043 C 189.41029 121.36758 192.10572 120.34961 195.6543 120.34961 z M 372.96875 120.34961 C 376.51733 120.34961 379.17851 121.36758 380.95312 123.4043 C 382.7271 125.37567 383.61523 128.23449 383.61523 131.98047 L 383.61523 133.96094 L 362.12695 134.14844 L 362.12695 132.08008 C 362.12695 128.33475 363.04674 125.44168 364.88672 123.4043 C 366.7267 121.36758 369.42017 120.34961 372.96875 120.34961 z M 487.63086 141.54297 L 500.9375 141.54297 L 500.9375 148.14648 C 500.9375 150.97214 499.82073 153.27291 497.58594 155.04688 C 495.41784 156.82149 492.59258 157.70703 489.10938 157.70703 C 486.08632 157.70703 483.68867 156.98686 481.91406 155.54102 C 480.20545 154.02981 479.34961 151.99063 479.34961 149.42773 C 479.34961 147.06222 480.10728 145.15613 481.61914 143.71094 C 483.13034 142.2651 485.13333 141.54297 487.63086 141.54297 z " />
</svg>
